<svg width="528" height="528" viewBox="0 0 528 528" fill="none" xmlns="http://www.w3.org/2000/svg">
<rect width="528" height="528" fill="white"/>
<path fill-rule="evenodd" clip-rule="evenodd" d="M385.56 325.857C377.882 328.86 368.998 333.367 368.175 341.57C378.605 333.545 391.49 328.756 404.63 328.02C395.553 339.457 384.09 348.993 371.192 355.837C359.608 361.984 344.943 368.54 343.95 381.615C356.39 366.802 375.517 357.833 394.861 357.744C382.485 375.87 362.641 388.727 341.039 392.613C341.781 398.183 365.731 410.114 372.707 412.409C377.675 433.752 379.827 461.431 384.795 482.774C386.018 488.026 387.094 494.062 383.878 498.39C380.687 502.684 374.662 503.423 369.326 503.802C348.295 505.297 319.52 506.792 298.489 508.287C295.971 496.88 293.452 485.472 290.934 474.064C255.46 477.358 103.377 512.208 75.467 493.925C-32.2725 423.347 105.114 399.304 108.067 313.375C108.744 293.672 49.5046 259.231 50.4452 239.098C51.0593 225.952 53.0944 213.11 59.5988 201.821C66.1031 190.533 76.4099 181.838 87.612 175.186C72.1893 171.222 60.5073 155.848 60.8199 139.927C61.1324 124.006 73.4088 109.103 88.9752 105.747C81.636 97.0008 70.0794 92.9921 61.6381 85.3045C51.8046 76.349 46.8632 61.9027 50.4452 49.0938C54.0271 36.2848 66.6388 26.207 79.927 26.7748C90.8421 27.2413 100.448 34.1448 108.067 41.9748C119.883 54.118 128.671 69.186 133.422 85.4498C136.589 96.2901 148.195 101.805 157.997 107.415C167.798 113.025 177.977 122.797 175.215 133.748C171.564 118.763 225.827 136.611 275.04 140.981C281.574 141.561 288.606 142.405 293.436 146.844C300.377 153.222 310.798 155.549 319.793 152.728C322.655 159.822 324.76 167.791 322.327 175.043C319.895 182.296 311.278 187.831 304.39 184.504C306.188 193.754 307.986 203.005 309.784 212.255C327.395 212.466 345.005 212.826 362.61 213.333C371.941 213.602 381.694 214.027 389.803 218.65C397.913 223.273 408.767 216.724 416.781 199.897C411.595 227.353 417.739 238.324 428.335 241.306C428.358 241.099 429.181 241.198 429.205 240.99C432.36 213.858 450.771 189.768 476.393 180.238C474.127 185.459 457.916 195.772 446.658 208.941C435.662 221.805 430.398 239.028 429.853 242.12C447.314 237.542 453.134 250.55 482.758 239.098C469.221 255.372 443.137 259.379 425.34 247.918C416.943 257.282 417.413 267.651 411.465 278.733C421.568 266.175 434.985 277.308 424.342 285.447C429.991 285.99 436.098 286.734 440.196 290.66C444.293 294.586 444.396 302.85 439.11 304.917C421.26 311.897 403.41 318.877 385.56 325.857Z" fill="url(#paint0_linear)"/>
<path fill-rule="evenodd" clip-rule="evenodd" d="M356.585 263.978C357.232 262.75 357.933 261.462 359.122 260.746C360.312 260.03 362.136 260.178 362.776 261.409C363.457 262.72 362.444 264.3 361.253 265.175C360.063 266.049 358.599 266.666 357.826 267.925C362.006 270.679 366.185 273.433 370.365 276.187C373.639 278.344 377.343 281.425 376.673 285.288C376.28 287.553 374.36 289.314 372.223 290.158C370.085 291.003 367.734 291.092 365.437 291.158C349.994 291.602 334.537 291.524 319.099 290.923C318.028 290.881 316.834 290.781 316.12 289.982C315.568 289.362 315.453 288.478 315.364 287.652C314.476 279.436 313.587 271.219 312.699 263.003C312.666 262.699 312.635 262.382 312.743 262.097C313.2 260.898 314.995 261.637 315.998 262.437C323.105 268.109 334.465 267.443 340.86 260.979C342.405 259.417 345.035 259.619 347.02 260.561C349.005 261.503 350.666 263.034 352.657 263.963C352.445 262.811 353.46 261.597 354.631 261.601C355.801 261.606 356.807 262.829 356.585 263.978Z" fill="white"/>
<path fill-rule="evenodd" clip-rule="evenodd" d="M107.908 173.293C107.908 173.293 106.183 152.631 110.525 145.989C114.867 139.346 131.406 137.347 131.406 137.347C131.406 137.347 176.737 136.754 201.23 137.69C225.722 138.627 274.706 142.824 274.706 142.824C274.706 142.824 281.071 144.213 283.932 145.989C286.793 147.764 290.784 152.803 290.784 152.803C290.784 152.803 299.469 154.069 303.789 154.242C308.109 154.414 312.067 153.652 312.067 153.652C312.067 153.652 317.573 169.709 313.68 177.362C309.788 185.015 296.719 183.829 296.719 183.829L301.345 212.471C301.345 212.471 295.845 215.071 292.84 218.33C289.834 221.589 288.626 226.262 288.626 226.262L297.56 313.375C297.56 313.375 300.189 317.903 305.834 319.623C311.479 321.342 324.198 321.489 324.198 321.489C324.198 321.489 323.745 330.273 324.198 334.053C324.652 337.833 325.056 339.904 325.056 339.904L334.632 408.458C334.632 408.458 325.325 410.151 316.115 412.385C306.905 414.62 288.626 419.619 288.626 419.619C288.626 419.619 282.183 422.557 281.348 427.3C280.514 432.044 283.932 446.298 283.932 446.298L181.318 454.119C181.318 454.119 171.333 454.307 167.898 452.143C164.463 449.979 163.522 442.906 163.522 442.906L149.643 318.072C149.643 318.072 127.463 318.615 120.986 314.917C114.508 311.218 113.725 297.565 113.725 297.565C113.725 297.565 114.801 289.826 113.725 284.455C113.366 282.663 108.675 263.237 107.099 244.753C106.207 234.294 118.514 226.262 118.514 226.262L107.908 173.293Z" fill="white"/>
<path fill-rule="evenodd" clip-rule="evenodd" d="M180.313 144.555C179.515 145.68 180.183 147.358 181.336 148.115C182.489 148.871 183.942 148.956 185.32 149.018C200.289 149.692 215.259 150.366 230.228 151.039C231.687 151.105 233.302 151.12 234.407 150.165C235.513 149.211 235.367 146.935 233.925 146.706C217.279 144.06 200.387 142.96 183.538 143.428C182.356 143.46 180.998 143.59 180.313 144.555" fill="#E7EAEE"/>
<path fill-rule="evenodd" clip-rule="evenodd" d="M246.915 251.849L243.024 233.594C243.024 233.594 242.843 237.358 240.783 238.889C238.724 240.421 234.652 239.819 234.652 239.819C234.652 239.819 234.007 227.071 236.873 223.189C239.74 219.307 242.563 222.973 248.008 221.731C253.448 220.491 252.321 216.404 258.642 218.224C264.963 220.044 269.633 233.572 269.633 233.572C269.633 233.572 264.677 235.233 262.568 234.807C260.46 234.381 260.974 231.823 260.974 231.823C260.974 231.823 259.479 231.187 259.86 235.672C260.045 237.851 261.695 241.128 262.568 245.414C262.894 247.01 262.568 250.597 262.568 250.597C262.568 250.597 256.944 251.171 252.083 252.211C247.223 253.252 246.915 251.849 246.915 251.849Z" fill="#E7EAEE"/>
<path fill-rule="evenodd" clip-rule="evenodd" d="M108.807 206.44C106.935 205.432 105.412 203.894 103.92 202.38C100.071 198.472 96.1731 194.502 93.5022 189.711C93.248 189.255 92.9979 188.731 93.1446 188.23C93.2912 187.729 94.0565 187.444 94.3427 187.881C98.9851 194.968 104.848 201.254 111.595 206.379C110.988 207.194 109.702 206.922 108.807 206.44Z" fill="#00160A"/>
<path fill-rule="evenodd" clip-rule="evenodd" d="M114.415 116.738C115.521 115.598 116.111 114.065 116.62 112.561C118.208 107.871 119.29 103.01 119.842 98.0889C119.941 97.2025 120.104 96.1819 120.873 95.7302C121.738 99.9496 120.667 104.298 119.601 108.471C118.665 112.14 117.628 115.993 114.972 118.692C114.703 118.965 114.36 119.243 113.982 119.18C113.473 119.095 113.269 118.418 113.451 117.934C113.633 117.451 114.055 117.108 114.415 116.738H114.415Z" fill="#00160A"/>
<path fill-rule="evenodd" clip-rule="evenodd" d="M381.372 153.54C381.899 153.4 382.435 153.815 382.664 154.309C382.894 154.803 382.911 155.365 383.013 155.9C383.412 157.991 385.297 159.707 387.417 159.909C387.681 160.523 387.097 161.138 386.635 161.621C385.583 162.722 384.919 164.185 384.784 165.702C384.697 166.685 384.489 168.054 383.502 168.041C382.708 168.031 382.36 167.071 382.074 166.331C381.376 164.522 379.801 163.075 377.939 162.533C377.548 162.42 377.384 161.92 377.491 161.528C377.599 161.135 377.897 160.828 378.181 160.537C379.404 159.282 380.645 157.796 380.632 156.044C380.625 155.096 380.457 153.785 381.372 153.54Z" fill="#608F58"/>
<path fill-rule="evenodd" clip-rule="evenodd" d="M418.443 318.138C416.801 319.826 416.22 322.467 417.001 324.688C416.136 325.075 415.489 323.883 415.06 323.037C414.418 321.767 413.203 320.801 411.821 320.461C413.823 319.199 415.068 316.824 414.968 314.46C415.773 313.935 416.673 315.028 416.904 315.96C417.135 316.893 417.483 318.105 418.443 318.138Z" fill="#E7EAEE"/>
<path fill-rule="evenodd" clip-rule="evenodd" d="M404.428 321.302C405.381 322.814 406.735 324.069 408.314 324.904C408.881 325.204 408.367 326.04 407.898 326.478C406.718 327.581 405.97 329.136 405.846 330.747C404.814 329.712 403.781 328.678 402.749 327.643C402.337 327.23 401.902 326.589 402.257 326.127C403.34 324.715 404.09 323.049 404.428 321.302Z" fill="#E7EAEE"/>
<path fill-rule="evenodd" clip-rule="evenodd" d="M335.473 139.351C336.413 133.368 338.683 127.489 342.673 122.932C346.662 118.376 352.486 115.266 358.542 115.271C364.598 115.276 370.714 118.706 373.231 124.214C374.533 127.064 374.852 130.272 374.764 133.405C374.596 139.362 372.995 145.273 370.136 150.502C367.558 155.217 363.851 159.458 359.039 161.85C354.227 164.242 348.229 164.564 343.551 161.919C339.847 159.825 337.255 156.067 336.021 151.995C334.786 147.924 334.813 143.554 335.473 139.351M372.487 134.824C372.596 131.114 371.984 127.284 370.034 124.127C368.848 122.208 367.187 120.584 365.241 119.443C358.965 115.762 350.422 117.74 345.209 122.815C339.996 127.891 337.737 135.393 337.504 142.665C337.38 146.544 337.797 150.521 339.446 154.034C341.095 157.548 344.113 160.552 347.872 161.518C352.79 162.781 357.981 160.403 361.838 157.099C368.272 151.587 372.238 143.293 372.487 134.824Z" fill="#608F58"/>
<path fill-rule="evenodd" clip-rule="evenodd" d="M397.444 135.197C396.443 136.506 395.395 138.226 396.164 139.684C396.439 140.206 395.727 140.813 395.161 140.648C394.595 140.484 394.273 139.885 394.123 139.315C393.972 138.745 393.923 138.134 393.62 137.627C393.318 137.121 392.631 136.769 392.13 137.081C391.418 136.997 391.345 135.924 391.759 135.338C392.173 134.752 392.853 134.35 393.107 133.679C393.309 133.148 393.201 132.553 393.296 131.993C393.392 131.433 393.868 130.835 394.418 130.978C394.399 131.962 394.513 132.983 395.012 133.831C395.511 134.679 396.467 135.314 397.444 135.197Z" fill="#608F58"/>
<path fill-rule="evenodd" clip-rule="evenodd" d="M307.863 133.258C308.646 132.348 309.629 131.569 310.783 131.237C311.937 130.906 313.276 131.081 314.177 131.874C315.158 132.737 315.465 134.18 315.257 135.47C315.048 136.759 314.397 137.931 313.713 139.044C312.825 140.488 311.861 141.885 310.825 143.228C310.502 143.647 310.147 144.079 309.652 144.266C308.997 144.513 308.268 144.272 307.623 144.003C305.356 143.055 303.248 141.726 301.417 140.087C299.74 138.587 298.193 136.388 298.872 134.243C299.305 132.876 300.627 131.888 302.046 131.677C303.464 131.466 304.933 131.965 306.061 132.851C306.6 133.274 307.415 133.778 307.863 133.258M300.7 134.052C299.629 135.525 300.792 137.589 302.141 138.812C303.824 140.338 305.823 141.466 307.803 142.58C308.058 142.723 308.342 142.872 308.628 142.81C308.882 142.755 309.07 142.547 309.238 142.348C310.58 140.758 311.781 139.051 312.825 137.252C313.627 135.868 314.216 133.834 312.923 132.892C311.9 132.147 310.409 132.747 309.542 133.669C308.674 134.591 308.129 135.795 307.181 136.634C306.44 135.467 305.653 134.255 304.453 133.57C303.253 132.886 301.513 132.935 300.7 134.052H300.7Z" fill="#608F58"/>
<path fill-rule="evenodd" clip-rule="evenodd" d="M292.526 93.0004C294.981 91.0865 297.711 89.5252 300.605 88.3792C302.379 87.6766 304.404 87.1358 306.158 87.8882C308.968 89.0938 309.515 93.1287 308.036 95.805C306.558 98.4814 303.754 100.104 301.085 101.595C295.85 104.519 290.615 107.443 285.38 110.367C286.411 108.309 285.248 105.894 284.295 103.799C282.15 99.0807 281.027 93.9007 281.027 88.7176C281.026 87.0804 281.149 85.3938 281.867 83.9224C282.585 82.4511 284.019 81.2308 285.655 81.1923C288.275 81.1307 290.016 83.8584 290.9 86.3249C291.674 88.4849 292.22 90.7265 292.526 93.0004ZM303.621 89.2492C299.387 90.1094 295.443 92.3368 292.519 95.5177C292.232 95.831 291.672 95.6929 291.409 95.3584C291.146 95.0239 291.096 94.5753 291.046 94.1527C290.716 91.3545 289.984 88.604 288.88 86.0117C288.264 84.5666 287.234 82.9707 285.663 82.9453C284.499 82.9264 283.486 83.8586 283.057 84.9407C282.627 86.0228 282.664 87.2274 282.746 88.3887C283.205 94.8653 284.909 101.251 287.738 107.096C292.369 104.501 297 101.906 301.63 99.3105C303.075 98.5008 304.546 97.671 305.669 96.454C306.793 95.2369 307.532 93.5458 307.205 91.922C306.879 90.2982 305.244 88.9194 303.621 89.2492Z" fill="#608F58"/>
<path fill-rule="evenodd" clip-rule="evenodd" d="M260.123 413.787C273.639 412.247 287.243 411.472 300.847 411.466C303.342 411.465 305.513 409.526 306.527 407.246C307.541 404.966 307.622 402.394 307.623 399.898C307.628 390.627 306.756 381.379 305.885 372.148C305.532 368.405 305.179 364.661 304.825 360.918C304.611 358.646 304.384 356.325 303.427 354.253C301.767 350.658 298.092 348.321 294.263 347.314C290.434 346.308 286.409 346.445 282.452 346.59C269.316 347.071 256.179 347.552 243.042 348.033C250.615 345.256 258.862 345.126 266.928 345.027C273.111 344.952 279.294 344.876 285.477 344.801C291.798 344.724 299.019 345.041 303.051 349.908C305.655 353.053 306.23 357.359 306.666 361.419C308.036 374.203 309.041 387.025 309.676 399.866C309.887 404.122 309.717 409.123 306.252 411.602C304.314 412.989 301.8 413.197 299.423 413.358C284.946 414.338 270.469 415.319 255.992 416.3C252.592 416.53 249.01 416.727 245.952 415.224C244.89 414.702 243.798 413.522 244.369 412.485C249.075 415.048 254.799 414.394 260.123 413.787Z" fill="#00160A"/>
<path fill-rule="evenodd" clip-rule="evenodd" d="M202.868 208.725C203.139 209.13 203.201 209.635 203.255 210.12C203.382 211.248 203.509 212.376 203.635 213.505C203.786 214.843 203.817 216.462 202.707 217.226C202.116 217.633 201.353 217.667 200.635 217.686C185.533 218.094 170.432 218.502 155.33 218.91C154.358 218.936 153.234 218.894 152.638 218.126C152.265 217.644 152.207 216.996 152.172 216.387C152.062 214.474 152.031 212.556 152.08 210.641C152.088 210.349 152.105 210.035 152.286 209.807C152.503 209.532 152.885 209.465 153.231 209.418C168.835 207.304 184.649 206.746 200.363 207.755C201.291 207.814 202.351 207.952 202.868 208.725M202.248 216.064C200.714 215.236 202.259 212.807 201.702 211.156C201.222 209.737 199.402 209.401 197.907 209.316C183.667 208.505 169.353 209.011 155.207 210.825C154.686 210.892 154.108 210.992 153.791 211.411C153.479 211.826 153.535 212.401 153.606 212.915C153.717 213.711 153.827 214.506 153.937 215.302C154.024 215.929 154.156 216.632 154.683 216.984C155.065 217.238 155.557 217.236 156.016 217.224C171.426 216.838 186.837 216.451 202.248 216.064Z" fill="#00160A"/>
<path fill-rule="evenodd" clip-rule="evenodd" d="M231.277 235.461C231.349 233.784 231.421 232.108 231.493 230.432C231.633 227.164 231.804 223.773 233.323 220.876C234.842 217.979 238.121 215.727 241.305 216.48C243.296 216.951 245.133 218.516 247.136 218.096C248.88 217.73 249.949 216.006 251.423 215.004C254.935 212.614 259.83 214.834 262.734 217.934C265.864 221.275 267.899 225.626 268.456 230.17C268.504 230.555 268.527 230.989 268.279 231.288C268.074 231.535 267.737 231.621 267.423 231.693C266.214 231.97 265.005 232.247 263.796 232.523C262.767 232.759 261.698 232.996 260.664 232.782C259.63 232.568 258.637 231.77 258.553 230.717C258.245 236.601 262.651 242.222 261.423 247.985C260.967 247.736 260.51 247.486 260.054 247.237C261.131 241.458 255.98 235.863 257.056 230.084C257.198 229.319 257.505 228.505 258.189 228.133C258.873 227.762 259.954 228.184 259.927 228.962C259.884 230.207 261.229 231.138 262.475 231.127C263.721 231.117 264.855 230.448 265.92 229.8C266.299 229.57 266.195 228.999 266.037 228.584C264.859 225.493 263.31 222.543 261.433 219.818C260.165 217.977 258.637 216.156 256.53 215.408C254.423 214.66 251.639 215.423 250.864 217.521C249.956 219.975 246.525 220.141 244.005 219.433C241.485 218.725 238.657 217.62 236.409 218.96C234.529 220.081 233.9 222.469 233.548 224.629C232.944 228.334 232.665 232.093 232.715 235.847C232.818 236.42 233.548 236.605 234.13 236.59C237.195 236.51 240.041 234.093 240.615 231.081C241.441 232.031 241.736 233.318 242.003 234.548C242.928 238.808 243.853 243.068 244.778 247.328C245.063 248.639 244.73 250.655 243.41 250.416C242.812 245.77 241.925 241.161 240.758 236.625C238.55 237.126 236.343 237.628 234.135 238.13C233.458 238.284 232.7 238.426 232.107 238.064C231.289 237.565 231.236 236.418 231.277 235.461Z" fill="#00160A"/>
<path fill-rule="evenodd" clip-rule="evenodd" d="M295.854 351.157C296.981 352.378 295.23 354.631 296.262 355.932C296.798 356.607 296.416 357.679 295.707 358.168C294.997 358.658 294.089 358.723 293.229 358.773C278.44 359.633 263.651 360.492 248.862 361.351C247.857 361.41 246.656 361.376 246.106 360.532C245.866 360.163 245.808 359.709 245.756 359.273C245.621 358.136 245.486 357 245.351 355.863C245.309 355.507 245.271 355.124 245.439 354.807C245.715 354.283 246.402 354.169 246.992 354.117C262.535 352.745 278.096 351.585 293.67 350.638C294.443 350.591 295.329 350.587 295.854 351.157ZM294.157 353.076C294.109 352.796 294.046 352.489 293.822 352.314C293.598 352.139 293.286 352.152 293.003 352.172C279.213 353.177 265.423 354.183 251.633 355.188C250.518 355.269 249.362 355.362 248.389 355.911C247.415 356.46 246.681 357.605 246.974 358.683C247.064 359.017 247.257 359.335 247.553 359.514C247.916 359.734 248.369 359.718 248.793 359.695C263.352 358.905 277.911 358.116 292.47 357.326C294.201 357.232 294.45 354.785 294.157 353.076Z" fill="#00160A"/>
<path fill-rule="evenodd" clip-rule="evenodd" d="M307.523 337.915C310.14 344.803 310.975 352.218 311.788 359.542C313.677 376.556 315.567 393.571 317.456 410.585C316.05 410.701 315.402 408.897 315.227 407.497C312.365 384.604 311.444 361.415 306.604 338.857C306.91 338.543 307.216 338.229 307.523 337.915Z" fill="#00160A"/>
<path fill-rule="evenodd" clip-rule="evenodd" d="M223.086 219.393C222.678 219.219 222.686 218.584 222.999 218.27C223.311 217.956 223.784 217.88 224.223 217.824C227.512 217.407 230.827 217.203 234.142 217.215C233.966 218.63 232.14 219.043 230.716 219.109C228.324 219.219 225.932 219.33 223.54 219.44C223.386 219.447 223.227 219.453 223.086 219.393L223.086 219.393Z" fill="#00160A"/>
<path fill-rule="evenodd" clip-rule="evenodd" d="M241.638 392.424C241.365 387.36 241.092 382.295 240.819 377.231C240.083 363.601 239.325 349.83 235.531 336.718C235.046 335.044 234.493 333.344 233.42 331.971C230.733 328.534 225.76 328.138 221.397 328.139C204.576 328.139 187.755 329.739 171.235 332.909C169.556 333.231 167.811 333.601 166.472 334.663C164.344 336.35 163.782 339.316 163.585 342.025C163.224 346.97 163.581 351.968 164.642 356.811C164.035 356.71 163.428 356.609 162.821 356.508C160.595 351.871 159.581 346.66 159.906 341.527C160.047 339.298 160.457 337.029 161.605 335.113C164.462 330.35 170.749 329.206 176.272 328.615C190.285 327.114 204.351 326.103 218.434 325.585C224.103 325.376 230.509 325.535 234.399 329.664C236.356 331.74 237.347 334.531 238.125 337.276C240.828 346.813 241.574 356.778 242.306 366.664C243.021 376.323 243.736 385.981 244.451 395.64C244.619 397.91 244.786 400.215 244.326 402.445C242.83 409.71 235.093 414.129 227.728 415.008C220.363 415.886 212.948 414.203 205.531 414.079C195.558 413.913 185.525 416.565 175.689 414.909C172.856 414.431 169.843 413.428 168.286 411.014C167.206 409.339 167.011 407.263 166.845 405.277C165.679 391.268 164.512 377.258 163.346 363.249C163.268 362.311 163.965 360.913 164.686 361.518C165.972 375.012 167.258 388.507 168.544 402.001C168.718 403.827 168.908 405.707 169.757 407.333C170.989 409.695 173.476 411.196 176.055 411.865C178.634 412.533 181.336 412.479 184 412.444C195.269 412.297 206.544 412.578 217.792 413.285C221.553 413.522 225.355 413.805 229.071 413.173C232.787 412.542 236.474 410.886 238.78 407.906C242.065 403.66 241.927 397.784 241.638 392.424Z" fill="#00160A"/>
<path fill-rule="evenodd" clip-rule="evenodd" d="M222.514 213.916C223.563 213.098 222.681 211.422 222.888 210.108C223.18 208.249 225.494 207.61 227.363 207.394C239.37 206.007 251.462 205.35 263.549 205.43C264.554 205.437 265.743 205.549 266.25 206.418C266.858 207.461 266.291 209.282 267.442 209.648C267.983 209.819 268.676 209.502 269.085 209.894C269.762 210.542 268.501 211.418 267.567 211.502C253.423 212.772 239.247 213.7 225.058 214.288C224.19 214.324 223.269 214.346 222.514 213.916M264.766 208.059C264.435 207.228 263.329 207.106 262.436 207.12C251.04 207.293 239.65 207.857 228.293 208.808C226.962 208.92 225.39 209.198 224.835 210.413C224.569 211.104 225.077 211.899 225.748 212.213C226.419 212.526 227.195 212.486 227.934 212.439C239.279 211.719 250.624 211 261.969 210.28C262.668 210.236 263.395 210.183 263.997 209.826C264.599 209.47 265.024 208.709 264.766 208.059Z" fill="#00160A"/>
<path fill-rule="evenodd" clip-rule="evenodd" d="M280.057 374.537C281.807 375.927 281.059 378.973 282.581 380.609C283.289 381.37 284.348 381.667 285.346 381.959C285.986 382.146 286.78 382.617 286.576 383.253C286.367 383.904 285.418 383.8 284.782 383.55C282.702 382.735 280.358 381.381 280.243 379.151C280.159 377.523 279.675 375.918 278.846 374.514C279.08 374.119 279.698 374.251 280.057 374.537V374.537Z" fill="#00160A"/>
<path fill-rule="evenodd" clip-rule="evenodd" d="M288.332 397.599C287.762 390.26 287.192 382.921 286.622 375.582C286.538 374.503 286.443 373.385 285.909 372.444C285.375 371.503 284.268 370.794 283.223 371.074C278.495 372.343 273.586 372.931 268.692 372.815C264.414 372.713 260.036 372.088 255.919 373.26C255.996 375.298 256.072 377.337 256.149 379.375C256.171 379.97 256.205 380.602 256.544 381.092C257.493 382.465 259.85 381.419 260.385 379.837C260.92 378.255 260.437 376.526 260.529 374.858C260.545 374.563 260.604 374.227 260.855 374.071C261.389 373.739 261.902 374.532 262.039 375.145C262.432 376.904 262.824 378.745 262.361 380.487C261.897 382.228 260.282 383.806 258.495 383.576C256.643 383.337 255.885 385.868 255.84 387.735C255.751 391.46 255.661 395.186 255.572 398.911C255.543 400.084 255.965 401.704 257.131 401.572C260.139 401.23 263.148 400.889 266.157 400.548C266.884 400.466 267.666 400.393 268.305 400.749C268.945 401.105 269.283 402.073 268.759 402.584C265.225 402.894 261.691 403.203 258.158 403.513C257.126 403.603 256.055 403.689 255.081 403.335C254.107 402.981 253.259 402.055 253.348 401.023C254.217 390.888 254.411 380.696 253.93 370.536C253.827 368.374 256.46 367.277 258.587 366.878C265.338 365.612 272.223 365.064 279.089 365.244C281.391 365.304 283.9 365.532 285.569 367.118C287.269 368.733 287.602 371.277 287.837 373.61C288.715 382.353 289.593 391.095 290.471 399.838C290.519 400.309 290.53 400.87 290.153 401.157C289.928 401.328 289.626 401.346 289.343 401.358C286.413 401.48 283.483 401.602 280.553 401.724C279 401.788 277.329 401.821 276.037 400.959C275.15 400.367 274.564 399.428 274.049 398.495C272.814 396.256 271.827 393.881 271.111 391.427C269.991 394.233 269.281 397.203 269.013 400.212C267.596 400.365 267.333 398.24 267.662 396.855C268.342 393.995 269.021 391.136 269.7 388.276C269.804 387.841 269.969 387.336 270.396 387.202C271.024 387.004 271.506 387.756 271.735 388.373C272.693 390.945 273.65 393.517 274.607 396.089C275.43 398.302 277.806 399.633 280.152 399.905C282.498 400.178 284.849 399.587 287.137 399.001C287.589 398.886 288.103 398.719 288.279 398.286C288.366 398.071 288.35 397.83 288.332 397.599ZM256.453 370.728C258.575 370.755 260.697 370.783 262.819 370.81C264.413 370.831 266.008 370.852 267.602 370.822C273.357 370.713 279.099 369.941 284.678 368.526C283.434 367.249 281.437 367.177 279.654 367.209C273.272 367.323 266.895 367.694 260.543 368.321C258.843 368.489 256.73 369.042 256.453 370.728L256.453 370.728Z" fill="#00160A"/>
<path fill-rule="evenodd" clip-rule="evenodd" d="M246.955 365.232C246.834 364.569 247.694 364.206 248.361 364.103C256.059 362.91 263.861 362.382 271.65 362.528C271.762 362.531 271.877 362.533 271.98 362.577C272.346 362.729 272.328 363.305 272.038 363.574C271.748 363.844 271.321 363.889 270.926 363.919C263.509 364.475 255.983 364.189 248.716 365.776C248.042 365.923 247.079 365.911 246.955 365.232L246.955 365.232Z" fill="#00160A"/>
<path fill-rule="evenodd" clip-rule="evenodd" d="M419.122 349.292C419.547 348.29 420.016 347.231 420.919 346.621C421.68 346.107 422.634 345.993 423.547 345.894C426.258 345.6 428.968 345.306 431.679 345.011C433.019 344.866 434.749 344.301 434.698 342.953C434.534 338.602 434.871 333.591 438.327 330.942C441.489 328.52 446.225 329.184 449.469 331.495C452.714 333.807 454.769 337.406 456.542 340.973C457.327 342.553 459.477 342.84 461.215 342.536C462.952 342.232 464.714 341.548 466.428 341.964C469.067 342.605 470.401 345.488 471.308 348.048C475.86 360.896 478.95 374.29 484.612 386.689C486.729 391.326 486.059 397.113 482.938 401.143C482.552 397.943 483.089 394.637 484.466 391.722C485.115 390.348 482.955 389.446 481.436 389.45C465.958 389.489 450.414 389.533 435.108 391.83C434.64 391.9 434.143 391.986 433.795 392.305C433.456 392.615 433.324 393.085 433.207 393.529C432.733 395.332 432.258 397.135 431.783 398.938C431.486 400.067 431.673 401.82 432.835 401.703C447.984 400.169 463.214 399.437 478.44 399.512C480.041 399.52 482.227 400.155 482.02 401.743C465.799 401.934 449.519 402.13 433.474 404.518C430.92 404.898 429.155 401.735 429.445 399.168C429.735 396.601 431.207 394.299 431.622 391.749C431.98 389.552 431.532 387.311 431.051 385.137C430.285 381.682 429.43 378.246 428.487 374.835C427.566 371.507 426.561 368.202 425.555 364.897C424.035 359.899 422.515 354.901 420.995 349.903C418.904 352.964 417.972 356.798 418.425 360.477C418.74 363.039 419.69 365.472 420.402 367.953C421.419 371.5 421.953 375.164 422.484 378.816C423.531 386.008 424.577 393.2 425.624 400.393C425.778 401.451 425.474 403.01 424.416 402.854C419.712 388.302 421.003 372.213 415.451 357.962C416.675 355.072 417.899 352.182 419.122 349.292ZM454.158 351.933C455.691 351.08 456.485 349.09 455.959 347.416C455.434 345.742 453.645 344.563 451.899 344.74C447.619 345.173 443.34 345.607 439.06 346.041C438.665 346.081 438.222 346.146 437.985 346.465C437.798 346.716 437.794 347.055 437.812 347.368C437.926 349.323 438.605 351.243 439.745 352.835C440.631 354.073 441.857 355.554 441.165 356.91C440.301 358.604 437.459 357.655 436.754 355.888C436.049 354.121 436.55 352.128 436.419 350.23C436.288 348.333 434.924 346.149 433.049 346.465C429.973 346.982 426.897 347.5 423.821 348.018C423.379 348.092 422.803 348.365 422.932 348.794C426.678 361.192 430.424 373.59 434.169 385.989C434.636 387.534 435.688 389.447 437.26 389.08C451.688 385.71 466.9 388.897 481.549 386.683C477.161 372.922 472.62 359.211 467.929 345.551C467.79 345.148 467.633 344.719 467.289 344.468C466.908 344.189 466.396 344.197 465.925 344.217C463.727 344.31 461.53 344.404 459.332 344.497C458.463 344.534 457.278 344.948 457.468 345.797C458.065 348.459 458.663 351.121 459.26 353.783C459.362 354.241 459.463 354.732 459.292 355.169C458.828 356.358 457.076 356.058 455.907 355.543C455.14 355.206 454.333 354.836 453.859 354.144C453.386 353.453 453.425 352.34 454.158 351.933ZM448.495 332.619C446.809 331.382 444.593 330.491 442.648 331.256C441.97 331.523 441.382 331.972 440.803 332.415C439.773 333.204 438.711 334.029 438.103 335.175C437.538 336.242 437.422 337.481 437.316 338.684C437.223 339.735 437.131 340.787 437.038 341.838C436.981 342.49 436.958 343.238 437.431 343.691C437.884 344.125 438.596 344.094 439.221 344.035C443.697 343.609 448.173 343.183 452.649 342.757C453.287 342.697 454.067 342.523 454.235 341.905C454.301 341.661 454.248 341.401 454.188 341.156C453.363 337.763 451.309 334.684 448.495 332.619ZM446.818 343.739C446.368 343.866 446.868 344.711 447.196 344.377C447.615 344.205 447.151 343.418 446.798 343.702L446.818 343.739Z" fill="#608F58"/>
<path fill-rule="evenodd" clip-rule="evenodd" d="M304.9 243.113C304.822 242.851 304.978 242.577 305.162 242.375C306.064 241.381 307.573 241.308 308.915 241.305C317.048 241.286 325.181 241.267 333.315 241.248C333.887 241.246 334.501 241.258 334.968 241.588C335.435 241.919 335.618 242.699 335.169 243.054C334.93 243.243 334.601 243.255 334.296 243.258C324.847 243.363 315.398 243.468 305.949 243.573C305.538 243.578 305.018 243.508 304.9 243.113Z" fill="#00160A"/>
<path fill-rule="evenodd" clip-rule="evenodd" d="M307.915 251.51C307.425 251.228 307.492 250.438 307.905 250.051C308.317 249.664 308.917 249.573 309.479 249.505C312.845 249.099 316.231 248.876 319.615 248.653C321.479 248.531 323.344 248.408 325.208 248.285C327.632 248.125 330.055 247.966 332.479 247.806C333.249 247.755 334.109 247.733 334.689 248.242C335.269 248.751 335.127 249.976 334.357 250.024C325.802 250.553 317.248 251.083 308.693 251.613C308.428 251.63 308.145 251.642 307.915 251.51L307.915 251.51Z" fill="#00160A"/>
<path fill-rule="evenodd" clip-rule="evenodd" d="M353.769 262.57C354.416 261.342 355.117 260.054 356.306 259.338C357.495 258.622 359.32 258.77 359.96 260.001C360.641 261.312 359.627 262.892 358.437 263.767C357.247 264.641 355.783 265.258 355.01 266.517C359.19 269.271 363.369 272.025 367.549 274.779C370.823 276.936 374.527 280.017 373.857 283.88C373.464 286.145 371.544 287.906 369.407 288.75C367.269 289.595 364.918 289.684 362.621 289.75C347.178 290.194 331.72 290.116 316.283 289.515C315.212 289.473 314.018 289.373 313.304 288.574C312.751 287.954 312.637 287.07 312.548 286.244C311.659 278.028 310.771 269.811 309.882 261.595C309.85 261.291 309.818 260.974 309.927 260.689C310.384 259.489 312.179 260.228 313.182 261.029C320.288 266.701 331.649 266.035 338.044 259.571C339.589 258.009 342.219 258.211 344.204 259.153C346.189 260.094 347.85 261.626 349.841 262.555C349.629 261.403 350.644 260.188 351.815 260.193C352.985 260.198 353.991 261.421 353.769 262.57ZM354.643 267.864C354.136 265.999 351.38 265.608 349.86 266.801C348.34 267.995 347.847 270.073 347.715 272.001C347.666 272.72 346.483 272.792 346.078 272.196C345.673 271.6 345.837 270.797 346.062 270.112C346.656 268.305 347.57 266.603 348.749 265.11C349.333 264.371 348.477 263.372 347.707 262.83C344.988 260.918 341.138 259.032 338.643 261.229C331.809 267.249 320.908 268.051 313.266 263.096C313.357 269.264 313.811 275.426 314.626 281.54C314.708 282.156 314.813 282.814 315.239 283.267C315.802 283.866 316.724 283.908 317.546 283.909C330.822 283.926 344.097 283.943 357.372 283.96C358.664 283.962 360.42 283.5 360.319 282.212C360.085 279.215 361.412 276.139 363.753 274.252C361.911 272.915 360.07 271.577 358.229 270.24C357.668 269.832 357.08 269.412 356.395 269.295C354.33 268.941 352.95 271.309 352.219 273.273C351.1 271.272 352.404 268.36 354.643 267.864ZM319.948 288.329C333.772 288.438 347.597 288.414 361.421 288.26C365.345 288.216 369.927 287.817 372.055 284.52C352.966 285.358 333.849 285.566 314.747 285.142C314.509 287.435 317.642 288.311 319.948 288.329M367.258 276.007C366.847 275.746 366.421 275.48 365.941 275.397C364.494 275.149 363.352 276.595 362.723 277.922C362.36 278.689 362.044 279.48 361.778 280.286C361.575 280.901 361.4 281.554 361.527 282.188C361.655 282.823 362.175 283.423 362.822 283.43C365.172 283.457 367.524 283.432 369.873 283.355C370.427 283.337 371.03 283.298 371.445 282.93C371.934 282.497 371.993 281.75 371.871 281.109C371.428 278.789 369.253 277.271 367.258 276.007ZM358.954 261C358.928 260.284 357.972 259.92 357.312 260.196C356.651 260.473 356.244 261.13 355.881 261.747C355.443 262.494 355.004 263.24 354.566 263.987C354.336 264.378 354.211 265.044 354.654 265.143C355.821 264.172 356.988 263.202 358.155 262.232C358.546 261.907 358.972 261.507 358.954 261ZM351.391 262.167C351.192 263.132 351.687 264.199 352.553 264.67C352.853 263.676 352.677 262.549 352.088 261.694C352.052 261.452 351.724 261.312 351.524 261.453C351.37 261.648 351.315 261.917 351.38 262.157L351.391 262.167Z" fill="#00160A"/>
<path fill-rule="evenodd" clip-rule="evenodd" d="M303.86 233.7C303.509 232.001 303.159 230.303 302.808 228.604C302.672 227.944 302.546 227.212 302.892 226.633C303.364 225.845 304.445 225.74 305.364 225.724C327.928 225.331 350.501 225.417 373.062 225.981C374.601 226.02 375.865 227.349 376.333 228.816C376.801 230.282 376.647 231.866 376.489 233.397C376.403 234.225 376.266 235.147 375.606 235.654C375.066 236.069 374.328 236.079 373.646 236.072C350.986 235.825 328.325 235.577 305.665 235.33C305.292 235.326 304.897 235.316 304.581 235.117C304.119 234.826 303.971 234.234 303.86 233.7ZM306.977 227.213C305.309 227.201 304.127 229.183 304.543 230.798C304.96 232.413 306.52 233.525 308.142 233.917C309.763 234.31 311.46 234.12 313.121 233.965C333.585 232.052 354.278 235.708 374.728 233.645C374.835 232.401 374.937 231.115 374.536 229.932C374.135 228.749 373.092 227.69 371.843 227.681C350.221 227.525 328.599 227.369 306.977 227.213Z" fill="#00160A"/>
<path fill-rule="evenodd" clip-rule="evenodd" d="M167.797 282.897C167.042 284.328 166 285.782 164.439 286.208C161.465 287.019 159.005 283.717 158.194 280.743C156.927 276.101 157.247 271.04 159.09 266.594C160.076 264.216 159.254 261.404 157.708 259.345C154.793 255.461 149.355 253.761 144.683 255.082C140.01 256.403 136.323 260.56 135.345 265.316C135.192 266.061 135.3 267.107 136.053 267.212C139.809 267.738 141.533 272.145 142.104 275.894C142.541 278.756 142.731 281.755 141.76 284.483C140.789 287.21 138.412 289.606 135.525 289.826C132.935 288.081 130.984 285.407 130.114 282.407C128.496 276.828 130.598 270.914 132.768 265.525C134.093 262.237 135.515 258.869 138.031 256.372C143.409 251.033 153.452 251.666 158.117 257.639C159.911 259.937 160.94 262.791 162.929 264.923C164.428 266.53 166.409 267.654 167.777 269.374C170.747 273.111 170.024 278.675 167.797 282.897ZM131.759 272.582C130.398 276.335 130.777 280.681 132.768 284.141C133.096 284.71 133.485 285.275 134.056 285.597C134.628 285.918 135.425 285.923 135.877 285.448C137.231 284.024 137.401 281.871 137.396 279.906C137.391 277.582 137.248 275.258 136.967 272.951C136.852 272.007 136.657 270.963 135.893 270.396C135.129 269.829 133.696 270.303 133.816 271.247C134.165 273.993 134.514 276.739 134.863 279.485C134.942 280.109 135.012 280.785 134.699 281.331C134.386 281.877 133.521 282.132 133.125 281.643C132.098 279.547 131.788 277.108 132.259 274.822C132.428 274.001 132.545 272.876 131.759 272.582M163.196 283.471C163.543 283.201 163.705 282.761 163.834 282.34C164.852 279.034 164.863 275.425 163.865 272.113C163.486 270.854 162.457 269.381 161.212 269.803C160.492 270.046 160.127 270.835 159.898 271.559C158.856 274.852 158.995 278.504 160.283 281.708C160.529 282.322 160.835 282.943 161.357 283.348C161.88 283.754 162.674 283.878 163.196 283.471ZM138.754 271.59C139.661 276.188 139.468 281 138.195 285.511C138.078 285.926 138.549 286.25 138.944 286.425C140.853 281.794 141.094 276.497 139.615 271.711C139.37 271.536 139.038 271.489 138.754 271.59ZM165.241 270.348C164.959 270.798 164.677 271.248 164.394 271.698C165.324 271.541 165.75 272.809 165.799 273.751C165.914 275.927 166.029 278.104 166.144 280.28C167.01 279.955 167.167 278.819 167.183 277.894C167.219 275.812 167.256 273.729 167.292 271.647C166.98 271.61 166.668 271.574 166.357 271.537C166.325 270.948 165.827 270.417 165.241 270.348Z" fill="#00160A"/>
<path fill-rule="evenodd" clip-rule="evenodd" d="M267.322 274.298C261.118 274.001 254.888 274.271 248.733 275.1C248.188 275.174 247.578 275.236 247.14 274.904C246.703 274.571 246.751 273.689 247.297 273.629C253.453 272.953 259.635 272.518 265.824 272.325C266.497 272.304 267.251 272.316 267.731 272.789C268.21 273.262 267.995 274.33 267.322 274.298Z" fill="#00160A"/>
<path fill-rule="evenodd" clip-rule="evenodd" d="M123.214 249.526C124.975 249.361 126.736 249.195 128.497 249.03C129.384 248.946 130.272 248.863 131.159 248.78C136.802 248.25 142.445 247.719 148.094 247.248C148.315 247.229 148.547 247.212 148.753 247.298C149.364 247.552 149.27 248.539 148.737 248.932C148.205 249.325 147.484 249.302 146.823 249.28C138.504 249.004 130.214 251.503 121.934 250.658C121.396 250.603 120.693 250.326 120.787 249.793C121.593 249.678 122.404 249.602 123.214 249.526Z" fill="#00160A"/>
<path fill-rule="evenodd" clip-rule="evenodd" d="M312.905 432.327C312.628 429.904 312.43 427.268 310.801 425.453C309.551 424.061 310.197 421.473 311.955 420.833C313.713 420.192 315.873 421.757 315.812 423.627C315.791 424.269 315.558 424.882 315.376 425.498C314.134 429.705 315.287 434.232 316.806 438.348C318.344 442.515 320.699 446.952 324.925 448.322C329.814 449.907 335.224 446.399 337.391 441.739C339.558 437.079 339.228 431.668 338.471 426.584C338.396 426.075 338.259 425.486 337.791 425.27C335.889 424.392 335.6 421.307 337.306 420.091C339.012 418.876 341.834 420.156 342.043 422.24C342.114 422.947 341.933 423.651 341.799 424.349C340.864 429.19 342.1 434.265 341.076 439.088C340.435 442.108 338.898 444.932 336.71 447.11C334.39 449.419 331.257 451.011 327.984 451.067C323.577 451.142 319.456 448.408 316.965 444.772C314.474 441.136 313.405 436.706 312.905 432.327Z" fill="#00160A"/>
<path fill-rule="evenodd" clip-rule="evenodd" d="M184.388 233.436C184.51 235.095 184.627 236.804 184.11 238.386C183.593 239.967 182.279 241.408 180.621 241.551C172.075 242.285 163.528 243.02 154.966 243.527C143.29 244.218 131.594 244.484 119.902 244.75C119.484 244.76 119.038 244.761 118.69 244.531C118.167 244.186 118.07 243.474 118.021 242.849C117.895 241.215 117.768 239.58 117.642 237.946C117.604 237.449 117.574 236.912 117.842 236.491C118.235 235.875 119.075 235.769 119.804 235.726C141.31 234.451 162.846 233.687 184.388 233.436ZM180.789 239.169C182.163 239.078 182.442 236.915 181.434 235.976C180.427 235.038 178.897 235.017 177.52 235.051C159.821 235.491 142.116 235.931 124.452 237.132C123.18 237.219 121.857 237.325 120.757 237.97C119.657 238.615 118.864 239.972 119.284 241.176C119.88 242.886 122.188 243.074 123.995 242.954C142.926 241.692 161.858 240.431 180.789 239.169Z" fill="#00160A"/>
<path fill-rule="evenodd" clip-rule="evenodd" d="M162.413 274.74C162.43 275.189 162.447 275.639 162.464 276.088C162.499 277.024 162.534 277.966 162.399 278.893C161.226 278.768 160.862 277.259 160.793 276.081C160.761 275.52 160.75 274.894 161.125 274.477C161.5 274.06 162.392 274.179 162.413 274.74L162.413 274.74Z" fill="#00160A"/>
<path fill-rule="evenodd" clip-rule="evenodd" d="M246.916 278.571C248.068 277.508 249.818 277.541 251.385 277.586C256.34 277.727 261.31 277.344 266.186 276.445C266.76 276.34 267.069 277.233 266.711 277.695C266.353 278.157 265.706 278.254 265.125 278.313C259.63 278.872 254.112 279.203 248.59 279.305C247.932 279.318 247.098 279.204 246.916 278.571Z" fill="#00160A"/>
<path fill-rule="evenodd" clip-rule="evenodd" d="M431.91 297.149C431.367 298.987 429.562 300.124 427.84 300.966C419.223 305.18 409.093 306.212 399.803 303.821C396.683 303.018 393.129 301.161 392.995 297.942C392.897 295.576 394.786 293.593 396.786 292.324C399.854 290.379 403.432 289.396 406.998 288.703C413.879 287.366 421.338 287.09 427.567 290.305C430.176 291.652 432.742 294.333 431.91 297.149M395.122 297.584C395.128 300.184 398.028 301.706 400.543 302.366C409.276 304.657 418.829 303.668 426.908 299.638C428.204 298.991 429.572 298.138 429.984 296.749C430.538 294.884 429.092 293.004 427.488 291.902C422.66 288.585 416.275 289.039 410.451 289.662C405.764 290.164 400.769 290.82 397.197 293.894C396.092 294.844 395.119 296.128 395.122 297.584H395.122Z" fill="#00160A"/>
<path fill-rule="evenodd" clip-rule="evenodd" d="M178.374 144.865C178.08 143.194 179.233 141.533 180.718 140.712C182.203 139.891 183.954 139.733 185.648 139.633C200.752 138.744 215.832 141.17 230.94 141.967C232.885 142.07 234.935 142.177 236.571 143.234C238.207 144.29 239.168 146.661 238.036 148.246C237.489 149.012 236.584 149.438 235.686 149.722C233.095 150.54 230.316 150.432 227.602 150.315C213.477 149.708 199.352 149.101 185.228 148.493C182.423 148.373 178.86 147.63 178.374 144.865M180.313 142.443C179.515 143.568 180.183 145.246 181.336 146.003C182.489 146.759 183.942 146.844 185.319 146.906C200.289 147.58 215.259 148.254 230.228 148.927C231.687 148.993 233.302 149.008 234.407 148.053C235.513 147.099 235.367 144.823 233.925 144.594C217.279 141.947 200.387 140.848 183.538 141.315C182.355 141.348 180.998 141.478 180.313 142.443" fill="#00160A"/>
<path fill-rule="evenodd" clip-rule="evenodd" d="M343.999 130.36C346.297 125.573 350.023 120.638 355.317 120.23C358.844 119.958 362.586 120.575 365.378 122.748C370.44 126.689 370.793 134.331 368.984 140.487C366.851 147.742 362.093 154.462 355.266 157.716C353.638 158.492 351.867 159.072 350.065 159.002C345.276 158.814 341.788 154.109 340.757 149.428C339.344 143.013 341.157 136.283 343.999 130.36ZM349.955 157.249C353.495 157.731 356.831 155.476 359.329 152.921C364.009 148.133 367.152 141.863 368.188 135.247C368.486 133.34 368.61 131.362 368.091 129.503C367.071 125.847 363.605 123.205 359.886 122.445C356.31 121.714 352.38 122.586 349.623 124.979C348.298 126.129 347.269 127.581 346.371 129.088C343.44 134.003 341.774 139.722 341.978 145.441C342.071 148.025 342.56 150.651 343.868 152.881C345.176 155.11 347.394 156.9 349.955 157.249Z" fill="#608F58"/>
<path fill-rule="evenodd" clip-rule="evenodd" d="M227.903 333.547C228.374 333.522 228.879 333.506 229.277 333.757C229.77 334.068 229.95 334.688 230.091 335.253C230.402 336.49 230.714 337.777 230.464 339.028C230.214 340.279 229.227 341.48 227.953 341.536C224.703 341.678 221.452 341.82 218.202 341.962C216.927 342.017 215.433 342.199 214.8 343.307C214.371 344.058 214.498 344.989 214.639 345.843C215.037 348.261 216.164 351.318 218.613 351.229C220.242 351.17 221.694 352.407 222.396 353.879C223.097 355.35 223.202 357.025 223.295 358.653C223.383 360.185 222.992 362.279 221.458 362.317C220.22 362.348 219.879 364.02 219.919 365.257C220.192 373.86 220.465 382.463 220.738 391.066C220.782 392.452 219.006 393.035 217.626 393.174C206.063 394.341 194.379 394.311 182.821 393.083C182.407 393.039 181.878 392.876 181.869 392.459C181.655 382.739 181.441 373.018 181.227 363.297C181.214 362.73 180.936 361.947 180.39 362.096C178.667 362.567 176.936 360.969 176.579 359.219C176.222 357.47 176.834 355.684 177.437 354.003C177.716 353.226 178.029 352.402 178.695 351.916C180.119 350.876 182.75 351.616 183.387 349.973C183.493 349.701 183.513 349.404 183.503 349.113C183.414 346.574 181.05 344.57 178.56 344.069C176.07 343.567 173.503 344.227 171.078 344.983C170.522 342.886 170.38 340.681 170.661 338.53C170.728 338.022 170.831 337.488 171.172 337.107C171.658 336.562 172.469 336.486 173.198 336.448C191.433 335.481 209.668 334.514 227.903 333.547ZM179.284 353.242C178.934 353.649 178.856 354.217 178.793 354.75C178.628 356.141 178.464 357.532 178.299 358.923C178.264 359.215 178.232 359.524 178.35 359.794C178.602 360.372 179.366 360.472 179.996 360.488C183.344 360.571 186.692 360.654 190.039 360.737C190.604 360.751 191.196 360.759 191.697 360.499C192.504 360.081 192.835 358.946 192.38 358.16C192.789 358.118 193.199 358.076 193.609 358.034C193.428 359.247 194.664 360.263 195.877 360.441C197.091 360.619 198.31 360.249 199.532 360.152C202.095 359.949 204.655 360.955 207.208 360.653C207.477 360.621 207.764 360.565 207.952 360.371C208.197 360.116 208.193 359.719 208.173 359.365C208.076 357.67 207.979 355.975 207.882 354.28C207.852 353.747 207.806 353.173 207.463 352.763C206.973 352.177 206.096 352.159 205.333 352.188C201.648 352.331 197.962 352.473 194.277 352.616C194.019 352.626 193.735 352.648 193.556 352.833C193.356 353.042 193.37 353.368 193.397 353.656C193.521 354.975 193.645 356.294 193.769 357.613C193.28 357.66 192.8 357.803 192.365 358.031C192.256 356.992 192.148 355.953 192.039 354.913C191.94 353.966 191.568 352.752 190.616 352.739C187.574 352.699 184.532 352.658 181.491 352.618C180.7 352.607 179.8 352.643 179.284 353.242ZM196.809 363.467C196.758 362.767 196.455 361.841 195.757 361.916C191.42 362.382 187.03 362.355 182.699 361.836C182.806 371.274 182.981 380.711 183.226 390.147C183.258 391.361 184.791 391.848 185.999 391.971C189.589 392.339 193.203 392.465 196.81 392.347C197.106 392.337 197.426 392.317 197.651 392.125C197.947 391.873 197.967 391.431 197.962 391.042C197.859 381.841 197.474 372.644 196.809 363.467ZM218.499 362.947C218.381 362.743 218.11 362.701 217.876 362.681C214.145 362.365 210.394 362.276 206.652 362.416C206.313 362.428 205.95 362.451 205.682 362.658C205.274 362.974 205.249 363.57 205.26 364.085C205.466 373.505 205.673 382.925 205.879 392.345C209.998 392.743 214.193 392.354 218.169 391.205C218.416 391.133 218.679 391.048 218.838 390.847C219.011 390.629 219.022 390.329 219.026 390.051C219.104 383.991 218.948 377.93 218.791 371.871C218.717 369.017 218.644 366.162 218.57 363.308C218.567 363.184 218.562 363.054 218.499 362.947ZM172.234 339.067C171.519 340.192 172.288 341.78 173.464 342.408C174.639 343.037 176.048 342.976 177.379 342.899C185.431 342.432 193.483 341.965 201.535 341.499C209.213 341.054 216.893 340.609 224.559 339.985C225.682 339.894 226.861 339.779 227.789 339.14C228.717 338.5 229.256 337.15 228.634 336.211C228.009 335.268 226.667 335.225 225.538 335.284C208.808 336.147 192.077 337.009 175.346 337.872C174.191 337.932 172.855 338.091 172.234 339.067ZM204.417 392.125C203.851 382.93 203.739 373.707 204.082 364.5C204.101 363.971 204.119 363.421 203.908 362.936C203.291 361.519 201.309 361.523 199.782 361.759C199.083 361.867 198.192 362.201 198.244 362.906C198.899 371.712 199.554 380.533 199.407 389.362C199.388 390.531 200.057 391.686 201.081 392.251C202.105 392.815 203.439 392.765 204.417 392.125ZM221.697 358.178C221.498 356.963 221.29 355.722 220.697 354.642C220.105 353.563 219.044 352.659 217.814 352.597C215.478 352.481 213.141 352.365 210.805 352.248C210.197 352.218 209.356 352.402 209.386 353.01C209.475 354.859 209.564 356.707 209.653 358.556C209.692 359.363 209.842 360.338 210.59 360.644C210.831 360.743 211.098 360.75 211.359 360.756C214.405 360.825 217.451 360.895 220.497 360.965C221.078 360.978 221.566 360.467 221.725 359.907C221.883 359.348 221.791 358.752 221.697 358.178ZM206.948 349.067C206.643 347.783 206.325 346.47 205.596 345.37C204.866 344.271 203.627 343.412 202.311 343.509C200.283 343.658 198.255 343.807 196.227 343.956C194.963 344.049 193.532 344.231 192.791 345.259C191.896 346.502 192.51 348.237 192.268 349.75C192.183 350.281 192.598 350.791 193.095 350.997C193.593 351.204 194.151 351.179 194.689 351.152C198.32 350.965 201.95 350.778 205.581 350.591C206.114 350.564 206.754 350.467 206.966 349.977C207.089 349.694 207.019 349.368 206.948 349.067ZM213.311 346.742C212.62 345.796 212.637 344.394 213.351 343.465C212.078 342.674 210.296 342.821 209.169 343.808C208.042 344.795 207.662 346.542 208.278 347.908C208.495 348.389 208.371 348.96 208.524 349.465C208.741 350.183 209.492 350.634 210.237 350.726C210.981 350.819 211.728 350.623 212.453 350.429C213.404 350.175 214.561 349.667 214.552 348.683C214.544 347.898 213.774 347.376 213.311 346.742ZM190.621 350.111C191.043 348.732 190.476 347.159 189.393 346.206C188.311 345.253 186.794 344.882 185.358 345.011C184.781 345.063 184.179 345.206 183.761 345.608C183.344 346.009 183.194 346.732 183.57 347.173C183.849 347.498 184.325 347.593 184.616 347.907C185.06 348.387 184.91 349.152 185.113 349.773C185.573 351.175 187.477 351.308 188.947 351.174C189.45 351.128 190.005 351.057 190.336 350.675C190.475 350.515 190.559 350.314 190.621 350.111ZM190.859 345.471C191.2 345.141 191.262 344.562 190.998 344.168C190.412 343.993 189.755 344.343 189.447 344.871C189.676 345.397 190.321 345.7 190.872 345.542M207.604 344.007C207.689 343.776 207.639 343.501 207.477 343.316C206.921 343.14 206.272 343.298 205.858 343.71C206.284 344.193 207.058 344.323 207.618 344.006L207.604 344.007Z" fill="#00160A"/>
<path fill-rule="evenodd" clip-rule="evenodd" d="M432.07 304.917C414.22 311.897 396.37 318.877 378.52 325.858C370.841 328.86 361.958 333.367 361.134 341.57C371.565 333.545 384.45 328.756 397.59 328.02C388.513 339.458 377.05 348.993 364.152 355.837C352.568 361.984 337.903 368.54 336.91 381.615C349.35 366.802 368.476 357.833 387.821 357.744C375.445 375.87 355.601 388.727 333.999 392.613C334.741 398.183 335.482 403.754 336.223 409.324C343.563 409.064 350.947 410.114 357.923 412.409C362.891 433.752 367.859 455.095 372.827 476.438C374.049 481.691 375.126 487.726 371.91 492.054C368.719 496.348 362.694 497.087 357.358 497.466C336.327 498.961 315.296 500.456 294.265 501.951C291.746 490.544 289.228 479.136 286.71 467.728C251.236 471.022 215.761 474.316 180.286 477.61C172.815 478.304 164.914 478.926 158.154 475.671C133.634 463.866 103.903 486.715 78.0055 478.356C100.759 477.927 123.443 473.958 144.991 466.636C152.806 463.98 162.162 456.706 158.079 449.533C138.096 463.476 112.457 469.043 88.4911 464.641C89.8982 441.367 88.9933 417.954 85.794 394.858C102.846 392.419 119.651 388.256 135.87 382.452C140.382 380.838 145.023 378.98 148.236 375.425C151.448 371.87 152.747 366.126 149.925 362.255C125.256 375.4 96.7733 381.283 68.9155 378.987C70.3691 410.508 71.8227 442.029 73.2764 473.551C69.1587 442.052 66.9749 410.301 66.7415 378.535C81.0816 377.264 95.4216 375.992 109.762 374.72C107.456 364.485 105.136 354.015 106.32 343.589C107.505 333.164 112.87 322.607 122.302 318.009C115.166 302.79 104.383 289.298 91.1118 278.983C75.5542 266.891 55.5522 257.775 48.4477 239.396C43.7503 227.244 46.0544 213.11 52.5588 201.821C59.0631 190.533 69.3698 181.838 80.572 175.186C65.1493 171.222 53.4673 155.848 53.7799 139.927C54.0924 124.006 66.3688 109.103 81.9352 105.747C74.5959 97.0008 63.0394 92.9922 54.5981 85.3045C44.7646 76.349 39.8232 61.9027 43.4052 49.0938C46.9871 36.2848 59.5988 26.207 72.887 26.7748C83.8021 27.2413 93.4076 34.1448 101.027 41.9748C112.843 54.118 121.631 69.186 126.382 85.4498C129.549 96.2901 141.155 101.805 150.957 107.415C160.758 113.025 170.937 122.797 168.175 133.748C164.524 118.763 152.265 106.202 137.373 102.189C129.613 100.098 126.785 90.8643 124.289 83.2253C119.432 68.3601 111.14 54.6287 100.246 43.4088C92.0594 34.9769 81.3554 27.619 69.6199 28.2525C57.5388 28.9046 46.889 38.7319 44.127 50.5111C41.365 62.2903 45.9959 75.1971 54.811 83.4839C63.7898 91.9246 76.6349 96.0591 83.8737 106.032C68.1738 109.223 55.7616 124.332 55.6791 140.352C55.5967 156.373 67.8527 171.609 83.5189 174.961C72.4786 181.423 62.148 189.633 55.3365 200.461C48.525 211.29 45.6051 225.034 49.6808 237.16C59.1075 265.207 98.3987 271.901 112.264 298.04C116.02 285.705 110.515 272.736 107.686 260.157C104.856 247.577 106.456 231.424 118.184 226.067C114.756 209.546 111.329 193.026 107.901 176.506C105.347 164.195 104.065 148.599 114.655 141.822C107.194 139.508 100.571 134.579 96.2131 128.095C100.92 135.299 109.985 139.387 118.5 138.145C107.739 114.819 95.8078 92.0321 82.7656 69.9002C96.8187 91.0899 109.256 113.351 119.934 136.426C169.322 135.09 218.787 136.611 268 140.981C274.534 141.561 281.566 142.405 286.396 146.844C293.337 153.222 303.758 155.549 312.753 152.728C315.615 159.822 317.72 167.791 315.287 175.043C312.855 182.296 304.238 187.831 297.35 184.504C299.148 193.754 300.946 203.005 302.744 212.255C320.355 212.466 337.965 212.826 355.57 213.333C364.901 213.602 374.654 214.027 382.763 218.65C390.873 223.273 396.596 233.513 392.983 242.12C395.287 235.007 397.591 227.893 399.895 220.78C408.016 233.67 412.005 249.121 411.137 264.331C413.951 260.051 416.764 255.77 419.577 251.49C409.582 235.76 408.31 214.853 416.323 198.026C424.183 211.041 428.609 226.109 429.039 241.307C431.97 213.916 451.376 188.945 477.195 179.343C472.716 189.664 468.236 199.986 463.757 210.307C459.922 219.144 455.05 228.946 445.835 231.754C439.755 233.606 430.954 233.493 429.851 239.752C447.311 235.174 465.895 234.947 483.462 239.098C469.925 255.372 443.84 259.379 426.043 247.918C417.647 257.282 410.373 267.651 404.425 278.733C414.528 266.175 430.252 258.323 446.361 257.789C437.706 268.017 427.945 277.308 417.302 285.447C422.951 285.99 429.058 286.734 433.156 290.66C437.253 294.586 437.355 302.85 432.07 304.917ZM196.448 201.838C201.129 201.784 206.373 201.951 209.641 205.303C212.134 207.861 212.802 211.633 213.346 215.163C215.831 231.307 218.158 247.476 220.327 263.665C220.871 267.726 217.466 271.473 213.577 272.761C209.687 274.048 205.459 273.483 201.403 272.905C204.784 269.985 210.494 272.078 214.134 269.488C217.398 267.165 217.379 262.395 216.988 258.408C215.523 243.458 213.527 228.561 211.006 213.753C210.561 211.135 210.015 208.35 208.161 206.45C205.692 203.919 201.746 203.751 198.21 203.746C183.696 203.728 169.182 203.71 154.668 203.692C152.166 203.689 149.534 203.718 147.362 204.96C141.113 208.532 143.416 217.966 146.523 224.46C155.324 222.676 164.317 221.839 173.296 221.97C181.25 222.085 191.17 224.668 192.511 232.51C195.458 249.737 198.405 266.964 201.352 284.191C202.897 293.224 203.749 304.198 196.53 309.843C192.923 312.664 188.136 313.336 183.593 313.911C172.423 315.323 161.253 316.735 150.083 318.147C154.736 358.882 159.388 399.616 164.04 440.351C164.559 444.894 165.509 450.117 169.504 452.342C171.868 453.659 174.734 453.551 177.436 453.404C213.026 451.463 248.583 448.893 284.082 445.695C282.663 442.459 282.634 438.64 284.006 435.384C287.602 456.434 291.198 477.484 294.793 498.535C301.089 494.195 300.121 484.776 298.45 477.315C294.218 458.424 289.987 439.534 285.755 420.643C284.042 423.786 282.329 426.929 280.616 430.072C279.774 426.148 282.129 422.088 285.394 419.755C288.66 417.423 292.685 416.466 296.608 415.625C308.672 413.038 320.867 411.063 333.13 409.708C329.566 384.569 326.002 359.429 322.439 334.289C300.529 340.307 277.326 338.414 254.688 336.473C247.982 335.898 239.461 333.641 238.822 326.942C237.214 310.101 235.607 293.26 233.999 276.419C233.79 274.223 232.518 271.266 230.424 271.957C225.277 273.657 222.216 266.324 221.795 260.921C220.474 243.973 219.152 227.025 217.831 210.077C217.658 207.854 217.613 205.289 219.27 203.798C220.431 202.754 222.102 202.563 223.657 202.421C234.746 201.407 245.836 200.393 256.925 199.379C263.258 198.8 270.451 198.501 275.059 202.883C278.311 205.976 279.403 210.666 280.089 215.101C281.354 223.275 281.773 231.581 281.337 239.841C280.458 231.767 279.58 223.692 278.701 215.618C278.305 211.985 277.822 208.133 275.527 205.289C271.61 200.435 264.322 200.517 258.106 201.028C247.001 201.942 235.897 202.856 224.792 203.769C223.297 203.892 221.676 204.069 220.589 205.104C219.175 206.449 219.215 208.677 219.356 210.624C220.546 227.003 221.736 243.381 222.926 259.76C223.15 262.852 223.456 266.157 225.41 268.562C227.365 270.968 231.605 271.723 233.431 269.219C230.929 263.719 234.39 256.985 239.512 253.779C244.634 250.574 250.92 250.01 256.944 249.529C267.331 248.701 277.719 247.872 288.107 247.043C287.395 225.543 285.077 204.096 281.177 182.94C277.584 181.935 274.312 179.812 271.932 176.939C270.15 181.528 264.844 184.444 260.015 183.488C255.186 182.532 251.392 177.814 251.493 172.893C250.921 178.556 245.987 183.469 240.32 184.017C234.654 184.565 228.871 180.688 227.223 175.239C224.51 178.266 220.989 180.873 216.941 181.242C212.894 181.61 208.416 179.054 207.758 175.043C202.442 181.94 190.087 181.24 185.584 173.787C180.952 181.431 167.766 181.243 163.354 173.471C161.373 180.657 150.313 181.232 145.005 175.999C139.696 170.766 138.663 162.705 137.924 155.287C129.161 163.73 127.58 177.294 129.244 189.348C130.907 201.402 135.241 213.014 136.292 225.137C138.693 225.741 141.326 225.36 143.457 224.1C141.155 217.144 139.641 207.798 145.89 203.972C148.396 202.437 151.498 202.359 154.437 202.325C168.44 202.163 182.444 202.001 196.448 201.838ZM335.172 318.903C353.541 317.991 372.492 320.386 389.948 314.596C392.65 313.7 395.417 312.519 397.158 310.268C392.698 308.219 387.963 304.685 388.072 299.778C388.144 296.556 390.376 293.771 392.892 291.756C395.532 289.641 398.607 288.07 401.868 287.169C402.133 286.362 400.713 286.187 400.01 286.664C399.307 287.141 398.24 287.731 397.772 287.022C397.647 286.832 397.621 286.594 397.599 286.367C395.847 268.537 393.25 250.789 389.821 233.204C388.79 227.917 387.258 222.027 382.598 219.325C380.082 217.866 377.066 217.621 374.164 217.42C352.32 215.909 330.436 214.983 308.542 214.644C303.368 214.564 297.58 214.757 293.953 218.447C291.201 221.246 290.413 225.405 290.122 229.319C289.219 241.441 291.815 253.507 293.504 265.545C295.527 279.964 296.255 294.53 297.589 309.029C297.766 310.959 297.982 312.969 299.026 314.602C300.815 317.401 304.447 318.279 307.737 318.74C312.597 319.421 317.512 319.709 322.418 319.601C326.675 319.507 330.919 319.115 335.172 318.903ZM184.416 225.37C178.197 222.637 171.075 223.369 164.327 224.152C154.121 225.337 143.914 226.522 133.707 227.707C128.802 228.276 123.891 228.847 119.038 229.762C117.868 229.982 116.694 230.225 115.59 230.671C111.265 232.42 108.686 237.084 108.086 241.711C107.486 246.338 108.514 251.003 109.5 255.563C112.564 269.736 115.281 284.042 116.018 298.523C116.164 301.39 116.238 304.295 117.026 307.055C117.814 309.815 119.423 312.471 121.938 313.854C123.873 314.917 126.147 315.138 128.35 315.283C148.547 316.61 168.733 313.353 188.711 310.107C191.554 309.645 194.544 309.118 196.76 307.279C200.182 304.438 200.693 299.44 200.669 294.993C200.623 286.779 199.629 278.571 197.712 270.584C195.469 261.242 191.948 252.053 191.855 242.447C191.814 238.21 192.37 233.644 190.159 230.029C188.853 227.893 186.708 226.378 184.416 225.37ZM88.3096 403.253C91.0247 422.76 91.9368 442.518 91.0307 462.193C90.9829 463.23 92.2431 463.759 93.2629 463.954C106.323 466.45 119.774 463.251 132.447 459.227C139.651 456.939 146.861 454.332 153.092 450.053C155.942 448.095 158.826 445.146 158.293 441.729C154.869 419.78 152.986 397.591 152.662 375.379C141.13 384.389 126.497 388.212 112.314 391.82C105.593 393.53 98.7796 395.252 91.8438 395.194C90.1672 395.18 88.7751 396.653 88.3065 398.262C87.838 399.872 88.0785 401.592 88.3096 403.253M353.37 413.114C331.769 411.01 309.735 413.48 289.136 420.314C290.373 429.723 292.063 439.072 294.198 448.318C295.053 452.02 295.979 455.705 296.905 459.391C298.709 466.568 300.513 473.745 302.317 480.922C302.568 481.921 302.882 483.013 303.743 483.578C304.512 484.083 305.506 484.025 306.423 483.948C327.752 482.17 349.068 480.242 370.371 478.167C365.714 457.409 361.057 436.65 356.4 415.891C356.221 415.094 356.006 414.235 355.371 413.719C354.822 413.273 354.074 413.182 353.37 413.114ZM321.528 321.988C316.828 322.227 312.058 322.461 307.468 321.418C302.879 320.376 298.413 317.874 296.056 313.8C294.703 315.358 292.014 315.474 290.531 314.04C289.049 312.606 289.076 309.915 290.587 308.511C284.616 308.564 278.645 308.618 272.674 308.672C275.403 310.279 275.179 315.019 272.358 316.458C269.537 317.898 265.633 315.466 265.567 312.3C265.538 310.879 266.41 309.283 267.825 309.156C267.239 308.15 265.714 308.745 264.555 308.635C262.807 308.47 261.853 306.566 261.24 304.922C258.754 298.252 256.492 291.502 254.231 284.753C255.814 287.345 259.38 288.511 262.189 287.355C263.181 286.947 263.211 285.52 262.789 284.534C262.051 282.812 260.37 281.484 258.502 281.337C256.635 281.191 254.691 282.332 254.059 284.096C253.123 283.396 253.522 281.777 254.504 281.143C255.486 280.51 256.744 280.565 257.911 280.636C268.924 281.301 279.977 281.29 290.989 280.604C291.49 280.573 292.043 280.517 292.384 280.149C292.77 279.733 292.733 279.091 292.672 278.526C292.251 274.653 291.83 270.78 291.409 266.906C291.362 266.477 291.296 266.007 290.975 265.718C290.621 265.399 290.089 265.414 289.614 265.447C275.811 266.431 262.044 267.917 248.349 269.901C246.891 270.112 245.535 268.889 245.075 267.489C244.615 266.09 244.827 264.569 245.045 263.112C245.121 262.601 245.218 262.048 245.597 261.696C245.945 261.372 246.451 261.296 246.923 261.236C261.171 259.417 275.512 258.326 289.872 257.967C289.524 259.386 287.674 259.692 286.213 259.718C272.886 259.954 259.574 261.022 246.38 262.914C245.326 264.716 246.77 267.143 248.715 267.9C250.66 268.658 252.838 268.253 254.889 267.867C266.194 265.739 277.663 264.485 289.16 264.12C290.802 264.068 290.998 261.706 290.653 260.1C289.852 256.371 289.05 252.643 288.249 248.914C280.287 250.422 272.154 251.023 264.057 250.703C259.266 250.514 254.5 251.351 249.778 252.185C245.765 252.894 241.488 253.734 238.588 256.597C235.198 259.944 234.591 265.176 234.797 269.935C235.135 277.743 237.116 285.38 238.094 293.133C239.289 302.606 238.981 312.209 239.899 321.713C240.146 324.274 240.498 326.882 241.646 329.184C242.794 331.486 244.881 333.462 247.425 333.842C268.333 336.959 289.65 337.313 310.649 334.892C312.589 334.668 314.546 334.416 316.377 333.739C319.267 332.67 321.745 330.526 323.219 327.82C323.811 326.734 324.253 325.492 324.037 324.274C323.822 323.056 322.764 321.925 321.528 321.988ZM154.385 375.398C156.573 399.469 158.761 423.541 160.949 447.613C161.342 451.94 161.72 456.409 160.368 460.538C159.016 464.667 155.458 468.398 151.116 468.541C153.665 472.269 158.065 474.402 162.514 475.182C166.963 475.963 171.524 475.55 176.022 475.134C213.082 471.71 250.141 468.286 287.2 464.862C286.405 460.231 285.61 455.6 284.814 450.969C284.636 449.93 284.125 448.611 283.073 448.69C257.593 450.589 232.112 452.488 206.632 454.387C196.169 455.166 185.654 455.946 175.197 455.091C169.905 454.658 163.37 452.555 162.848 447.271C158.67 404.998 153.834 362.79 148.342 320.668C148.257 320.02 148.152 319.327 147.709 318.847C147.118 318.205 146.139 318.156 145.267 318.152C140.057 318.125 134.846 318.099 129.636 318.072C131.158 326.705 133.133 335.257 135.551 343.682C135.998 345.239 136.741 347.057 138.336 347.337C144.066 348.343 148.587 353.056 150.944 358.374C153.302 363.692 153.858 369.605 154.385 375.398ZM134.366 225.56C129.894 202.878 126.11 180.059 123.021 157.147C122.847 155.851 122.678 154.507 123.059 153.257C123.845 150.679 126.665 149.328 129.287 148.706C134.414 147.49 139.767 147.896 145.022 148.283C193.063 151.825 241.261 153.243 289.427 152.53C287.511 148.644 283.659 145.994 279.561 144.589C275.464 143.183 271.084 142.871 266.763 142.573C224.363 139.643 181.9 136.897 139.403 137.408C134.203 137.471 128.943 137.591 123.923 138.945C118.903 140.299 114.072 143.025 111.176 147.344C106.612 154.149 107.716 163.138 109.128 171.209C112.437 190.109 116.461 208.885 121.191 227.481C125.583 226.841 129.974 226.201 134.366 225.56ZM237.807 181.227C240.103 181.251 242.489 181.123 244.521 180.053C248.099 178.17 249.687 173.83 249.923 169.794C250.16 165.758 249.363 161.712 249.62 157.677C249.678 156.757 250.192 155.538 251.084 155.769C251.73 160.414 252.377 165.06 253.023 169.705C253.38 172.269 253.75 174.882 254.874 177.215C255.998 179.548 258.018 181.598 260.56 182.086C262.021 182.367 263.546 182.116 264.938 181.592C268.27 180.34 271.063 177.15 270.937 173.592C270.762 168.679 270.587 163.767 270.412 158.854C270.343 156.911 269.62 154.321 267.678 154.423C254.73 155.101 241.743 155.041 228.802 154.243C227.858 154.185 227.609 155.522 227.709 156.462C228.227 161.335 228.745 166.208 229.263 171.081C229.654 174.759 230.489 179.084 233.865 180.598C235.088 181.146 236.467 181.213 237.807 181.227ZM304.217 486.988C303.596 487.423 303.187 488.092 302.809 488.748C300.846 492.167 299.267 495.807 298.114 499.577C320.779 497.993 343.427 496.153 366.05 494.057C366.901 493.978 367.823 493.867 368.433 493.269C368.829 492.881 369.032 492.343 369.224 491.823C370.071 489.522 370.918 487.222 371.764 484.922C372.177 483.802 372.542 482.409 371.737 481.53C371.067 480.799 369.929 480.822 368.941 480.901C348.256 482.558 327.582 484.343 306.919 486.254C305.979 486.342 304.99 486.446 304.217 486.988ZM344.171 347.346C343.558 340.195 342.31 332.169 336.474 327.992C334.197 334.263 331.898 340.628 331.377 347.28C330.856 353.931 332.326 361.02 336.787 365.98C337.414 366.677 338.112 367.354 338.444 368.23C338.776 369.107 338.608 370.264 337.794 370.729C331.729 365.452 329.219 356.989 329.361 348.952C329.503 340.914 331.967 333.122 334.407 325.463C334.943 323.78 333.409 322.01 331.687 321.617C329.966 321.225 328.187 321.801 326.515 322.369C326.19 322.48 326.046 322.851 325.943 323.179C324.787 326.864 323.62 330.77 324.516 334.526C328.374 350.71 327.876 367.696 331.804 383.863C331.949 384.46 332.106 385.069 332.454 385.576C335.058 380.483 337.663 375.389 340.268 370.296C341.492 367.903 342.723 365.493 343.487 362.916C344.973 357.904 344.617 352.554 344.171 347.346ZM436.317 229.873C436.82 230.288 437.495 230.419 438.144 230.492C445.51 231.315 452.461 226.301 456.54 220.113C460.619 213.924 462.546 206.613 465.22 199.7C467.73 193.212 470.939 186.995 474.776 181.193C467.095 188.4 457.638 193.448 449.621 200.279C441.603 207.11 434.78 216.692 435.345 227.21C435.398 228.182 435.566 229.253 436.317 229.873ZM141.304 160.172C142.351 164.762 141.918 169.862 144.461 173.824C146.926 177.665 152.127 179.496 156.454 178.046C160.782 176.596 163.83 172.002 163.484 167.451C163.405 166.417 163.172 165.402 162.939 164.391C162.027 160.431 161.115 156.471 160.203 152.511C160.113 152.117 160.011 151.702 159.732 151.41C159.331 150.991 158.69 150.942 158.111 150.92C152.541 150.707 146.97 150.494 141.4 150.281C140.864 150.26 140.276 150.256 139.859 150.594C139.332 151.021 139.302 151.806 139.371 152.481C139.638 155.115 140.715 157.591 141.304 160.172ZM292.087 164.453C292.221 170.793 296.351 176.306 300.707 180.915C301.133 181.365 301.569 181.817 302.1 182.134C302.96 182.648 304.006 182.77 305.004 182.684C308.369 182.395 311.248 179.85 312.668 176.786C314.089 173.721 314.249 170.216 313.943 166.852C313.637 163.488 312.892 160.176 312.592 156.811C312.532 156.137 312.284 155.256 311.607 155.258C305.651 155.281 299.696 155.304 293.741 155.327C292.979 155.33 292.172 155.345 291.529 155.753C290.885 156.161 290.526 157.113 291.003 157.707C292.461 159.521 292.038 162.127 292.087 164.453ZM382.647 360.569C366.332 360.283 351.374 369.955 339.962 381.619C338.039 383.585 336.16 385.647 334.88 388.082C334.654 388.513 334.475 389.112 334.846 389.427C335.044 389.595 335.326 389.605 335.585 389.604C345.077 389.571 354.207 385.561 361.919 380.027C369.631 374.493 376.129 367.47 382.647 360.569ZM180.76 176.894C183.09 175.553 184.591 172.881 184.523 170.193C184.488 168.829 184.085 167.506 183.761 166.181C182.928 162.772 182.603 159.238 182.803 155.735C182.845 154.988 182.909 154.222 182.685 153.508C182.461 152.795 181.865 152.14 181.119 152.099C174.954 151.762 168.788 151.426 162.622 151.089C162.401 151.077 162.159 151.07 161.98 151.202C161.702 151.405 161.718 151.818 161.769 152.158C162.528 157.176 164.956 161.902 165.112 166.974C165.169 168.84 164.919 170.752 165.442 172.545C166.111 174.84 168.023 176.652 170.241 177.546C172.459 178.439 174.948 178.489 177.301 178.065C178.505 177.848 179.7 177.505 180.76 176.894ZM427.466 245.583C431.932 246.843 435.879 249.477 440.211 251.138C449.815 254.821 461.245 253.284 469.534 247.193C473.093 244.578 476.651 241.963 480.21 239.348C475.872 240.374 471.385 240.768 466.934 240.511C459.497 240.082 452.153 237.855 444.725 238.413C438.406 238.887 432.261 241.441 427.466 245.583ZM299.955 211.221C299.078 206.359 298.2 201.498 297.322 196.636C296.146 190.12 294.97 183.604 293.794 177.088C293.71 176.625 293.609 176.129 293.266 175.808C292.924 175.486 292.256 175.485 292.069 175.917C290.894 178.628 288.489 180.777 285.663 181.641C283.948 182.165 283.801 184.504 284 186.286C285.406 198.858 287.071 211.401 288.993 223.904C289.552 218.79 293.934 214.35 299.04 213.723C300.033 213.601 300.133 212.206 299.955 211.221ZM206.144 171.677C205.598 166.435 204.91 161.209 204.081 156.005C203.909 154.932 203.452 153.594 202.367 153.547C196.755 153.3 191.143 153.054 185.531 152.808C185.331 152.799 185.12 152.793 184.943 152.887C184.49 153.127 184.564 153.788 184.698 154.283C185.992 159.088 186.679 164.056 186.737 169.032C186.751 170.256 186.737 171.528 187.249 172.64C188.004 174.276 189.721 175.215 191.353 175.98C194.197 177.312 197.306 178.484 200.409 178C203.513 177.516 206.469 174.801 206.144 171.677ZM208.571 171.706C209.137 174.448 210.174 177.638 212.861 178.427C215.128 179.092 217.58 179.275 219.854 178.634C222.128 177.993 224.202 176.466 225.22 174.334C225.944 172.816 226.108 171.098 226.202 169.418C226.461 164.818 226.283 160.193 225.672 155.626C225.639 155.382 225.603 155.13 225.48 154.917C225.152 154.35 224.38 154.27 223.726 154.256C218.011 154.131 212.297 154.007 206.583 153.882C206.116 153.872 205.464 154.358 205.859 154.607C206.498 160.344 207.403 166.052 208.571 171.706ZM400.583 228.458C396.119 238.551 394.804 250.01 396.867 260.851C397.69 265.181 399.31 269.777 403.059 272.097C404.162 272.779 406.001 272.981 406.409 271.75C411.152 257.443 408.939 241.003 400.583 228.458ZM111.244 355.171C113.138 356.47 115.272 357.417 117.506 357.95C120.329 358.622 123.261 358.63 126.163 358.7C132.942 358.863 139.714 359.383 146.439 360.255C147.377 360.377 148.153 359.362 148.128 358.416C148.103 357.47 147.528 356.635 146.931 355.9C143.344 351.482 138.106 348.436 132.492 347.505C128.515 346.845 124.448 347.215 120.418 347.099C116.388 346.983 112.181 346.301 108.968 343.866C108.798 346.181 108.784 348.508 108.927 350.825C108.985 351.762 109.08 352.735 109.558 353.544C109.958 354.222 110.595 354.725 111.244 355.171ZM274.355 175.355C274.988 176.503 276.003 177.387 277.044 178.185C278.171 179.048 279.389 179.857 280.773 180.174C284.182 180.955 287.668 178.429 289.105 175.24C290.542 172.052 290.396 168.396 290.064 164.915C289.812 162.282 289.47 159.659 289.037 157.05C288.965 156.615 288.882 156.16 288.608 155.814C288.128 155.208 287.25 155.137 286.477 155.117C282.321 155.006 278.164 154.896 274.008 154.785C273.088 154.761 271.781 155.201 272.054 156.08C273.277 160.015 273.811 164.164 273.623 168.28C273.513 170.682 273.194 173.249 274.355 175.355ZM421.441 248.42C425.853 241.299 427.174 232.333 425.003 224.242C423.083 217.089 418.62 210.752 417.205 203.482C413.907 213.488 410.587 224.26 413.57 234.364C415.099 239.543 418.187 244.11 421.441 248.42ZM348.339 360.451C361.463 357.071 373.577 349.864 382.81 339.945C385.573 336.977 388.401 334.07 391.292 331.226C384.21 332.197 377.296 334.387 370.947 337.672C361.261 342.682 352.762 350.483 348.339 360.451ZM428.297 273.341C433.124 268.804 437.95 264.268 442.777 259.732C426.453 261.812 411.209 271.245 402.062 284.924C404.42 286.74 407.802 285.67 410.553 284.533C414.378 282.951 418.236 281.352 421.641 278.998C424.039 277.341 426.173 275.337 428.297 273.341ZM110.827 372.483C110.868 372.903 110.917 373.346 111.171 373.682C111.727 374.417 112.859 374.237 113.744 373.978C123.873 371.018 133.86 367.572 143.659 363.655C144.366 363.373 145.19 362.925 145.204 362.165C137.687 361.643 130.169 361.122 122.652 360.601C120.813 360.473 118.968 360.345 117.165 359.96C114.454 359.381 111.868 358.219 109.636 356.575C109.799 361.891 110.313 367.19 110.827 372.483ZM348.292 321.621C347.685 322.06 347.44 322.832 347.231 323.551C346.516 326.017 345.797 328.633 346.461 331.113C346.8 332.377 347.48 333.518 348.151 334.641C350.009 337.747 351.867 340.852 353.725 343.958C353.898 344.247 354.086 344.55 354.384 344.707C355.272 345.173 356.147 344.078 356.559 343.165C359.233 337.233 361.968 330.962 361.362 324.484C361.268 323.488 360.998 322.358 360.108 321.901C359.699 321.691 359.224 321.664 358.765 321.642C356.011 321.505 353.256 321.368 350.502 321.231C349.739 321.193 348.91 321.174 348.292 321.621ZM390.394 299.663C390.324 303.838 393.966 307.328 397.96 308.543C401.955 309.759 406.241 309.235 410.392 308.79C417.692 308.006 425.412 307.36 431.413 303.13C432.744 302.192 434.003 301.034 434.597 299.517C435.525 297.151 434.592 294.358 432.848 292.509C431.104 290.661 428.686 289.604 426.265 288.829C417.617 286.06 408.014 286.379 399.568 289.716C395.112 291.476 390.475 294.873 390.394 299.663ZM110.14 342.307C110.926 343.04 112.519 343.228 112.826 342.197C113.876 338.665 116.238 335.637 119.02 333.221C121.802 330.805 125.009 328.939 128.195 327.089C129.054 326.589 129 325.351 128.834 324.372C128.512 322.474 128.191 320.576 127.869 318.678C127.787 318.197 127.627 317.623 127.156 317.495C126.771 317.39 126.39 317.65 126.076 317.896C123.79 319.68 121.505 321.465 119.219 323.25C114.64 326.826 109.732 330.929 108.739 336.654C108.392 338.649 108.659 340.926 110.14 342.307ZM127.968 329.53C122.835 332.736 117.402 336.285 115.069 341.869C114.924 342.217 114.79 342.582 114.802 342.958C114.824 343.701 115.423 344.328 116.109 344.613C116.795 344.898 117.56 344.911 118.303 344.92C122.697 344.972 127.091 345.024 131.486 345.075C131.699 345.078 131.931 345.075 132.1 344.943C132.366 344.735 132.339 344.331 132.286 343.998C131.585 339.568 130.884 335.138 130.184 330.708C130.084 330.078 129.88 329.324 129.266 329.153C128.818 329.028 128.362 329.284 127.968 329.53ZM346.283 321.894C343.047 321.059 339.558 321.241 336.427 322.407C337.033 324.397 338.107 326.242 339.539 327.752C344.362 332.837 345.789 340.221 346.336 347.208C346.628 350.941 346.732 354.688 346.645 358.431C348.764 355.162 350.882 351.894 353.001 348.625C353.212 348.3 353.429 347.956 353.452 347.569C353.475 347.183 353.3 346.814 353.121 346.47C351.03 342.433 347.958 338.951 346.018 334.839C344.078 330.727 343.484 325.477 346.283 321.894ZM129.523 150.799C127.738 151.082 125.704 151.536 124.856 153.131C124.27 154.235 124.443 155.569 124.631 156.804C125.407 161.89 126.182 166.976 126.958 172.062C130.927 164.925 134.643 157.651 138.359 150.379C137.671 149.602 136.452 149.7 135.427 149.863C133.459 150.175 131.491 150.487 129.523 150.799ZM373.81 323.485C374.36 324.214 375.795 323.407 375.457 322.559C380.758 324.081 386.536 322.997 391.543 320.685C396.55 318.373 400.921 314.908 405.223 311.458C403.417 311.205 401.61 310.953 399.803 310.7C399.434 310.649 398.956 310.656 398.815 311.001C397.842 313.382 395.748 315.166 393.435 316.293C391.122 317.419 388.577 317.965 386.061 318.501C384.315 318.873 382.569 319.245 380.822 319.617C378.118 320.193 375.068 321.022 373.81 323.485ZM277.915 286.605C278.255 286.519 278.619 286.417 278.836 286.142C279.173 285.716 279.005 285.103 278.916 284.567C278.828 284.03 278.964 283.317 279.499 283.223C279.987 283.321 280.212 283.9 280.224 284.397C280.237 284.895 280.127 285.414 280.307 285.878C280.707 286.911 282.133 286.952 283.233 286.812C283.883 286.729 284.533 286.646 285.184 286.563C285.388 286.537 285.605 286.505 285.757 286.366C286.238 285.925 285.569 285.206 285.42 284.57C285.304 284.08 285.534 283.549 285.383 283.068C285.127 282.248 284.037 282.123 283.179 282.151C276.614 282.369 270.049 282.587 263.483 282.804C263.596 284.047 263.936 285.268 264.481 286.39C264.599 286.632 264.737 286.882 264.97 287.015C265.207 287.151 265.497 287.142 265.769 287.13C267.401 287.054 269.033 286.978 270.665 286.902C270.804 286.896 270.95 286.887 271.066 286.81C271.364 286.613 271.261 286.159 271.124 285.829C270.888 285.262 270.652 284.694 270.417 284.126C270.212 283.633 271.106 283.34 271.482 283.72C271.858 284.1 271.872 284.695 272.049 285.2C272.418 286.246 273.531 286.885 274.632 287.02C275.734 287.154 276.839 286.879 277.915 286.605M373.26 321.359C373.618 320.978 372.829 320.58 372.31 320.644C369.354 321.006 366.398 321.369 363.441 321.731C363.046 321.78 362.524 321.997 362.619 322.383C363.59 326.361 363.225 330.653 361.597 334.41C361.287 335.126 361.084 336.218 361.826 336.458C364.908 330.925 368.77 325.826 373.26 321.359ZM272.533 289.606C272.441 289.284 272.336 288.947 272.092 288.719C271.814 288.461 271.413 288.395 271.035 288.353C269.098 288.141 267.124 288.274 265.233 288.744C265.825 290.663 266.416 292.582 267.008 294.501C267.12 294.864 267.271 295.272 267.624 295.415C267.804 295.488 268.006 295.475 268.201 295.462C270.113 295.327 272.025 295.193 273.938 295.059C273.523 293.228 273.054 291.409 272.533 289.606ZM260.082 296.315C260.295 296.431 260.555 296.396 260.794 296.357C262.525 296.074 264.256 295.792 265.988 295.51C265.363 293.508 264.738 291.506 264.113 289.504C264.022 289.21 263.908 288.888 263.637 288.741C263.423 288.626 263.163 288.651 262.921 288.679C261.377 288.858 259.834 289.038 258.29 289.217C258 289.251 257.656 289.323 257.549 289.595C257.475 289.78 257.545 289.987 257.613 290.173C258.293 292.008 258.973 293.843 259.653 295.678C259.744 295.924 259.852 296.189 260.082 296.315ZM279.534 288.317C279.168 287.999 278.627 288.021 278.143 288.06C276.619 288.186 275.094 288.311 273.569 288.437C274.025 290.39 274.599 292.317 275.286 294.201C275.376 294.449 275.478 294.709 275.688 294.867C275.951 295.065 276.31 295.054 276.637 295.035C277.678 294.972 278.719 294.909 279.76 294.846C280.239 294.817 280.822 294.715 280.983 294.262C281.06 294.045 281.01 293.805 280.96 293.58C280.643 292.17 280.327 290.76 280.01 289.35C279.926 288.973 279.826 288.57 279.534 288.317ZM270.438 302.354C270.288 302.378 270.127 302.406 270.017 302.512C269.803 302.718 269.901 303.073 270.013 303.348C270.414 304.329 270.815 305.309 271.215 306.289C271.364 306.653 271.531 307.04 271.863 307.25C272.17 307.445 272.555 307.449 272.919 307.446C274.302 307.438 275.686 307.43 277.069 307.422C277.272 307.42 277.492 307.413 277.648 307.284C277.93 307.05 277.825 306.601 277.695 306.258C277.163 304.855 276.63 303.452 276.098 302.049C275.927 301.598 275.301 301.592 274.825 301.667C273.363 301.896 271.9 302.125 270.438 302.354ZM282.079 288.039C281.788 288.04 281.461 288.056 281.265 288.271C281.028 288.531 281.103 288.937 281.193 289.276C281.586 290.763 281.98 292.25 282.373 293.737C282.442 293.998 282.523 294.278 282.733 294.449C283.011 294.676 283.414 294.633 283.769 294.579C285.081 294.379 286.393 294.178 287.704 293.978C287.564 292.456 287.322 290.943 286.981 289.453C286.875 288.987 286.728 288.478 286.324 288.223C286.022 288.031 285.642 288.026 285.285 288.027C284.216 288.031 283.148 288.035 282.079 288.039ZM284.749 307.247C284.324 305.703 283.899 304.16 283.473 302.616C283.311 302.026 283.081 301.358 282.511 301.136C282.23 301.026 281.918 301.051 281.617 301.077C280.218 301.199 278.818 301.32 277.419 301.442C277.787 302.825 278.224 304.189 278.727 305.529C278.98 306.203 279.364 306.968 280.075 307.083C281.618 307.333 283.192 307.388 284.749 307.247ZM287.185 307.14C288.453 307.243 289.846 307.314 290.872 306.56C290.427 304.831 289.982 303.101 289.538 301.372C289.438 300.983 289.304 300.549 288.947 300.364C288.685 300.228 288.371 300.265 288.078 300.306C286.821 300.481 285.564 300.656 284.307 300.831C284.606 302.661 285.113 304.458 285.816 306.174C285.924 306.437 286.045 306.711 286.27 306.884C286.525 307.08 286.865 307.114 287.185 307.14ZM400.239 282.525C401.208 280.536 402.177 278.547 403.146 276.559C403.247 276.35 403.352 276.124 403.315 275.894C403.279 275.671 403.116 275.492 402.961 275.328C401.581 273.869 400.202 272.411 398.823 270.952C398.249 271.735 398.315 272.799 398.407 273.765C398.707 276.936 399.007 280.106 399.308 283.277C399.729 283.371 400.049 282.914 400.239 282.525ZM288.579 287.809C288.398 287.797 288.191 287.793 288.065 287.923C287.923 288.07 287.955 288.305 287.996 288.505C288.269 289.821 288.542 291.138 288.815 292.454C288.916 292.942 289.036 293.464 289.404 293.8C290.595 294.886 292.89 293.017 293.998 294.189C294.192 292.32 294.052 290.416 293.586 288.596C293.553 288.468 293.515 288.333 293.416 288.244C293.303 288.142 293.139 288.127 292.986 288.116C291.517 288.014 290.048 287.912 288.579 287.809ZM261.17 297.573C261.012 297.595 260.846 297.619 260.715 297.712C260.425 297.917 260.437 298.344 260.478 298.697C260.589 299.638 260.711 300.613 261.204 301.423C261.696 302.233 262.669 302.833 263.585 302.587C264.897 302.235 266.209 301.884 267.521 301.532C267.464 300.278 267.211 299.033 266.772 297.857C266.662 297.563 266.525 297.254 266.255 297.095C265.975 296.93 265.625 296.969 265.303 297.013C263.925 297.199 262.548 297.386 261.17 297.573ZM291.772 286.57C292.167 286.51 292.588 286.439 292.881 286.167C293.755 285.36 292.756 283.719 293.465 282.763C293.742 282.39 293.064 282.056 292.6 282.076C290.527 282.163 288.455 282.251 286.382 282.338C286.463 283.196 286.612 284.047 286.827 284.881C287.068 285.81 287.974 286.446 288.911 286.652C289.849 286.858 290.823 286.714 291.772 286.57ZM275.021 297.733C274.754 296.451 273.038 296.152 271.751 296.392C270.463 296.632 269.025 297.097 267.931 296.377C268.001 297.73 268.317 299.071 268.86 300.313C268.973 300.574 269.112 300.846 269.359 300.986C269.639 301.144 269.985 301.094 270.301 301.039C271.57 300.82 272.839 300.601 274.109 300.381C274.737 300.273 275.567 299.775 275.236 299.229C274.972 298.794 275.125 298.232 275.021 297.733ZM267.181 302.997C266.144 303.172 265.108 303.348 264.071 303.523C263.509 303.618 262.817 303.843 262.757 304.41C262.606 305.841 264.032 306.996 265.443 307.281C266.854 307.566 268.318 307.287 269.751 307.428C269.692 306.212 269.437 305.004 269 303.867C268.895 303.597 268.772 303.318 268.542 303.141C268.17 302.854 267.645 302.918 267.181 302.997ZM294.507 300.22C293.131 300.074 291.732 300.147 290.379 300.435C291.127 302.216 291.658 304.088 291.957 305.997C292.094 306.871 293.344 306.889 294.202 306.67C294.522 306.588 294.871 306.487 295.054 306.211C295.211 305.974 295.204 305.668 295.191 305.384C295.117 303.812 295.043 302.241 294.97 300.669C294.965 300.57 294.959 300.465 294.902 300.384C294.817 300.263 294.654 300.235 294.507 300.22ZM272.039 314.3C273.336 313.005 272.671 310.391 270.913 309.873C269.154 309.356 267.179 311.193 267.568 312.984C267.971 314.836 270.697 315.638 272.039 314.3ZM282.237 299.119C283.062 298.042 281.827 296.451 280.49 296.217C279.153 295.983 277.798 296.495 276.441 296.475C275.941 296.468 275.92 297.22 276.083 297.693C276.293 298.305 276.503 298.916 276.713 299.528C276.799 299.779 276.955 300.079 277.219 300.062C278.187 300.002 279.155 299.941 280.122 299.88C280.895 299.832 281.766 299.734 282.237 299.119ZM295.612 309.52C295.513 309.249 295.365 308.985 295.132 308.815C294.922 308.663 294.661 308.599 294.404 308.568C292.373 308.323 290.402 310.349 290.702 312.372C291.566 313.399 293.194 313.683 294.355 313.009C295.516 312.334 296.076 310.78 295.612 309.52ZM283.076 297.286C283.031 298.176 283.814 298.936 284.672 299.176C285.53 299.416 286.443 299.261 287.32 299.105C287.769 299.025 288.272 298.909 288.507 298.518C289.009 297.684 288.014 296.156 288.932 295.836C288.316 295.751 287.699 295.667 287.083 295.582C286.269 295.47 285.426 295.36 284.636 295.585C283.846 295.811 283.117 296.466 283.076 297.286ZM290.446 298.425C291.38 299.237 292.943 299.125 293.811 298.243C294.68 297.36 294.793 295.865 294.138 294.814C292.503 295.117 290.868 295.421 289.233 295.724C289.439 296.708 289.687 297.765 290.446 298.425ZM416.781 282.798C415.507 283.27 414.234 283.742 412.961 284.213C412.329 284.448 411.688 284.686 411.139 285.08C413.222 285.892 415.848 284.83 416.781 282.798ZM298.445 181.753C298.411 181.191 297.816 180.732 297.264 180.841C297.299 181.413 297.87 181.895 298.44 181.833L298.445 181.753Z" fill="#00160A"/>
<defs>
<linearGradient id="paint0_linear" x1="138.24" y1="-145.44" x2="435.36" y2="770.88" gradientUnits="userSpaceOnUse">
<stop stop-color="#608F58"/>
<stop offset="1" stop-color="#A8EB12"/>
</linearGradient>
</defs>
</svg>
